<svg width="16" height="16" viewBox="0 0 16 16" fill="none" xmlns="http://www.w3.org/2000/svg">
<g clip-path="url(#clip0_1920_8787)">
<path d="M3.05025 12.9497C1.7375 11.637 1 9.85652 1 8C1 6.14348 1.7375 4.36301 3.05025 3.05025C4.36301 1.7375 6.14348 1 8 1C9.85652 1 11.637 1.7375 12.9497 3.05025C14.2625 4.36301 15 6.14348 15 8C15 9.85652 14.2625 11.637 12.9497 12.9497C11.637 14.2625 9.85652 15 8 15C6.14348 15 4.36301 14.2625 3.05025 12.9497Z" stroke="#706B6B" stroke-width="0.7" stroke-linejoin="round"/>
<path d="M5.87868 3.05025C5.31607 4.36301 5 6.14348 5 8C5 9.85652 5.31607 11.637 5.87868 12.9497C6.44129 14.2625 7.20435 15 8 15C8.79565 15 9.55871 14.2625 10.1213 12.9497C10.6839 11.637 11 9.85652 11 8C11 6.14348 10.6839 4.36301 10.1213 3.05025C9.55871 1.7375 8.79565 1 8 1C7.20435 1 6.44129 1.7375 5.87868 3.05025Z" stroke="#706B6B" stroke-width="0.7" stroke-linejoin="round"/>
<path d="M1.5 10.3327H14.5M1.5 5.66602H14.5" stroke="#706B6B" stroke-width="0.7" stroke-linecap="round"/>
</g>
<defs>
<clipPath id="clip0_1920_8787">
<rect width="16" height="16" fill="white"/>
</clipPath>
</defs>
</svg>
