<svg width="24" height="24" viewBox="0 0 24 24" fill="none" xmlns="http://www.w3.org/2000/svg">
<rect width="24" height="24" rx="4" fill="#FFF0C6"/>
<path d="M12.7005 3.5C11.3554 4.35 11.103 5.47426 11.103 5.47426C11.103 5.47426 11.1032 5.50162 11.0893 5.52898C11.0051 5.54279 10.9491 5.57015 10.879 5.58383C10.781 5.61119 10.6829 5.63868 10.5848 5.69353L10.2905 5.81705C10.0944 5.91294 9.89824 5.99515 9.70197 6.10485C9.51982 6.21455 9.33781 6.31045 9.15566 6.43383C9.14043 6.42676 9.1263 6.41759 9.11372 6.4066C7.30636 5.72116 5.7091 6.54353 5.7091 6.54353C5.56903 8.43545 6.43756 9.60088 6.60572 9.82028C6.56365 9.94366 6.52157 10.0532 6.4795 10.1629C6.33872 10.5915 6.24027 11.0322 6.18551 11.4791C6.17153 11.534 6.17139 11.6163 6.15741 11.671C4.49012 12.4799 4 14.1387 4 14.1387C5.38701 15.7016 7.01223 15.7975 7.01223 15.7975C7.20836 16.1541 7.46041 16.5106 7.72671 16.8259C7.83869 16.9629 7.96505 17.0862 8.07716 17.2233C7.57279 18.6353 8.16118 19.8281 8.16118 19.8281C9.71636 19.883 10.7389 19.17 10.9491 18.9918C11.1032 19.033 11.2574 19.0879 11.4115 19.1291C11.883 19.2511 12.3672 19.3201 12.8547 19.3348H13.485C14.2136 20.3631 15.5026 20.5 15.5026 20.5C16.4134 19.554 16.4694 18.6356 16.4694 18.4162V18.3338C16.6516 18.1966 16.8336 18.0597 17.0298 17.9088C17.3941 17.5935 17.7024 17.2097 17.9827 16.8259C18.0106 16.7984 18.0246 16.7435 18.0665 16.7162C19.1034 16.771 19.8179 16.0856 19.8179 16.0856C19.6495 15.0299 19.0333 14.5226 18.9071 14.4268L18.8931 14.4129L18.8791 14.3991L18.865 14.3854C18.865 14.3306 18.8791 14.2619 18.8791 14.1935C18.8931 14.07 18.8931 13.9604 18.8931 13.8509V13.3984C18.8931 13.371 18.8931 13.3435 18.8791 13.3025L18.865 13.2065L18.8511 13.1104C18.8369 12.9871 18.809 12.8775 18.795 12.7678C18.683 12.3154 18.501 11.8766 18.2768 11.5063C18.0246 11.1088 17.7303 10.7797 17.394 10.4781C17.0578 10.1902 16.6795 9.94353 16.2873 9.77898C15.8809 9.60074 15.4886 9.49117 15.0684 9.45013C14.8722 9.42264 14.6479 9.42264 14.4517 9.42264H14.1295C14.0175 9.43632 13.9196 9.44987 13.8213 9.46355C13.4011 9.54589 13.0229 9.69677 12.6867 9.88868C12.3503 10.0807 12.0561 10.3412 11.8039 10.6291C11.5517 10.9169 11.3695 11.2185 11.2433 11.5476C11.1186 11.8632 11.0476 12.1966 11.0332 12.5346V12.891C11.0332 12.9322 11.0332 12.9734 11.0473 13.0146C11.0613 13.179 11.0894 13.3299 11.1453 13.4807C11.2434 13.7822 11.3837 14.0563 11.5658 14.2896C11.739 14.512 11.9469 14.7063 12.182 14.8653C12.4204 15.0162 12.6446 15.1256 12.8968 15.1943C13.1489 15.2629 13.373 15.304 13.5971 15.2902H13.9196C13.9476 15.2902 13.9755 15.2767 14.0036 15.2767C14.0316 15.2767 14.0457 15.2629 14.0876 15.2629C14.1297 15.2493 14.1996 15.2354 14.2417 15.2218C14.3397 15.1943 14.4238 15.1394 14.5218 15.1121C14.62 15.0709 14.6901 15.0162 14.7602 14.975C14.7742 14.9613 14.8021 14.9475 14.8161 14.9338C14.9003 14.879 14.9142 14.7694 14.8442 14.6871C14.7881 14.6322 14.69 14.6047 14.6059 14.6459C14.5919 14.6596 14.578 14.6597 14.5499 14.6734C14.4939 14.7007 14.4099 14.7282 14.3538 14.7556C14.2697 14.7693 14.1998 14.7968 14.1157 14.8106C14.0737 14.8106 14.0316 14.8241 13.9895 14.8241H13.6393C13.6254 14.8241 13.5973 14.8243 13.5831 14.8106C13.415 14.7832 13.233 14.7282 13.0649 14.6596C12.8968 14.5774 12.7286 14.4816 12.5885 14.3444C12.4356 14.2082 12.3035 14.0512 12.1963 13.8782C12.0842 13.7001 12.028 13.4944 12 13.3025C11.986 13.1928 11.9719 13.0966 11.986 12.9871V12.8225C11.986 12.7677 12 12.7129 12.0141 12.6581C12.0981 12.2057 12.3222 11.7669 12.6725 11.4379C12.7707 11.3419 12.8547 11.2735 12.9668 11.205C13.0789 11.1226 13.1768 11.0679 13.2889 11.0268C13.401 10.9856 13.5272 10.9307 13.6393 10.9032C13.7656 10.8759 13.8915 10.8482 14.0036 10.8482C14.0597 10.8482 14.1297 10.8348 14.1858 10.8348H14.3538C14.4939 10.8485 14.6341 10.8621 14.7602 10.8896C15.0263 10.9444 15.2787 11.0403 15.5309 11.1775C16.0212 11.4516 16.4413 11.8628 16.6935 12.3565C16.8197 12.6032 16.9036 12.8638 16.9597 13.1517C16.9737 13.2341 16.9738 13.2885 16.9878 13.3572V13.7274C16.9878 13.8097 16.9738 13.8782 16.9738 13.9606C16.9597 14.0429 16.9599 14.1112 16.946 14.1935C16.9318 14.2757 16.9177 14.3444 16.9038 14.4266C16.8758 14.5775 16.8058 14.7146 16.7638 14.8653C16.6517 15.1532 16.4974 15.4274 16.3152 15.6603C15.9509 16.154 15.4327 16.5654 14.8724 16.8259C14.578 16.9493 14.2838 17.059 13.9755 17.1C13.823 17.1273 13.6682 17.141 13.5131 17.141H13.2749C13.1907 17.141 13.1069 17.1413 13.0227 17.1275C12.6865 17.1001 12.3644 17.0313 12.0422 16.9491C11.7199 16.8531 11.4115 16.7435 11.1172 16.5927C10.5288 16.2912 10.0106 15.8525 9.59027 15.359C9.39414 15.0985 9.19774 14.8241 9.04369 14.5499C8.88964 14.2756 8.77752 13.9604 8.69351 13.6588C8.59537 13.3573 8.55343 13.0419 8.53945 12.7265V12.2466C8.53945 12.0959 8.5533 11.9316 8.58139 11.7672C8.59537 11.6025 8.62333 11.4516 8.66541 11.2872C8.69337 11.1226 8.74956 10.9718 8.79164 10.8072C8.88963 10.4919 8.98763 10.1904 9.1277 9.90249C9.40785 9.32675 9.75816 8.81941 10.1785 8.40809C10.2841 8.30497 10.3965 8.20879 10.515 8.12015C10.5571 8.07898 10.669 7.98295 10.7951 7.91442C10.9212 7.84589 11.0473 7.76355 11.1874 7.7087C11.2436 7.68134 11.3136 7.65384 11.3837 7.6128C11.4116 7.59912 11.4394 7.58545 11.4955 7.57177C11.5236 7.55809 11.5517 7.54427 11.6076 7.53059C11.7478 7.47574 11.888 7.42102 12.0281 7.37985C12.0562 7.36617 12.1122 7.36604 12.1402 7.35236C12.1683 7.33868 12.2241 7.33881 12.252 7.32513C12.3362 7.31145 12.3923 7.29751 12.4624 7.27015C12.4904 7.25634 12.5464 7.25634 12.5744 7.24266C12.6025 7.24266 12.6586 7.22911 12.6867 7.22911C12.7147 7.22911 12.7708 7.21543 12.7988 7.21543L12.8547 7.20162L12.9106 7.18794C12.9386 7.18794 12.9948 7.17412 13.0227 7.17412C13.0648 7.17412 13.1069 7.16031 13.1489 7.16031C13.1769 7.16031 13.2468 7.1469 13.2749 7.1469C13.3029 7.1469 13.3171 7.1469 13.3591 7.13309H13.4572C13.4993 7.13309 13.5411 7.13309 13.5831 7.11941H14.2139C14.494 7.13309 14.7742 7.16058 15.0263 7.21543C15.5448 7.31132 16.063 7.47587 16.5114 7.69528C16.9598 7.90087 17.38 8.17487 17.7162 8.46294C17.7303 8.47648 17.7584 8.49043 17.7724 8.51779C17.7865 8.53147 17.8145 8.54515 17.8283 8.57251C17.8704 8.6 17.9125 8.65485 17.9546 8.68221C17.9966 8.7097 18.0387 8.76455 18.0808 8.79205C18.1088 8.83322 18.1647 8.87412 18.1926 8.91516C18.3468 9.06604 18.487 9.23059 18.6131 9.38134C18.8454 9.67156 19.0473 9.98392 19.2158 10.3137C19.2296 10.3274 19.2293 10.3412 19.2434 10.3687C19.2574 10.3823 19.2576 10.3959 19.2715 10.4234C19.2855 10.4507 19.2995 10.5057 19.3275 10.5331C19.3416 10.5604 19.3557 10.6154 19.3695 10.6428C19.3837 10.6703 19.3978 10.7251 19.4118 10.7525C19.4678 10.8897 19.5239 11.0266 19.5658 11.1637C19.65 11.3693 19.6919 11.5612 19.734 11.7122C19.748 11.7669 19.8181 11.8218 19.8742 11.8218C19.9582 11.8218 20 11.7668 20 11.6846C19.9579 11.4515 19.9582 11.2598 19.9441 11.0268C19.916 10.7387 19.86 10.4096 19.776 10.0394C19.6919 9.66927 19.5236 9.28545 19.3275 8.86045C19.1174 8.44926 18.8512 8.01045 18.5009 7.6128C18.3608 7.44825 18.2067 7.29764 18.0527 7.13309C18.3049 6.1872 17.7584 5.35074 17.7584 5.35074C16.8197 5.29602 16.2311 5.63868 16.021 5.78942C15.993 5.77574 15.9371 5.7622 15.9091 5.74852C15.7549 5.69366 15.5868 5.625 15.4187 5.57028C15.2504 5.52911 15.0824 5.46045 14.9142 5.43309C14.7461 5.39191 14.5641 5.35074 14.3678 5.32325C14.3398 5.32325 14.3117 5.30957 14.2698 5.30957C13.8774 4.04825 12.7005 3.5 12.7005 3.5Z" fill="url(#paint0_linear_1921_9384)"/>
<defs>
<linearGradient id="paint0_linear_1921_9384" x1="11.9858" y1="24.3331" x2="11.9858" y2="8.81865" gradientUnits="userSpaceOnUse">
<stop stop-color="#FCEE1F"/>
<stop offset="1" stop-color="#F15B2A"/>
</linearGradient>
</defs>
</svg>
