<svg width="24" height="24" viewBox="0 0 24 24" fill="none" xmlns="http://www.w3.org/2000/svg">
<rect width="23.9996" height="24.0006" rx="4" fill="white"/>
<path d="M2 6.16659C2 5.06154 2.43898 4.00175 3.22036 3.22036C4.00175 2.43898 5.06154 2 6.16659 2H17.833C18.9381 2 19.9979 2.43898 20.7792 3.22036C21.5606 4.00175 21.9996 5.06154 21.9996 6.16659V17.833C21.9996 18.9381 21.5606 19.9979 20.7792 20.7792C19.9979 21.5606 18.9381 21.9996 17.833 21.9996H6.16659C5.06154 21.9996 4.00175 21.5606 3.22036 20.7792C2.43898 19.9979 2 18.9381 2 17.833V6.16659Z" fill="url(#paint0_radial_1921_9368)"/>
<path d="M21.3097 20.1323C20.9298 20.7068 20.4134 21.1782 19.8066 21.5042C19.1999 21.8303 18.5219 22.0008 17.8331 22.0006H6.16666C5.4779 22.0008 4.79982 21.8303 4.19311 21.5042C3.58641 21.1782 3.06999 20.7068 2.69006 20.1323L9.99659 12.8258C10.5279 12.2945 11.2485 11.9961 11.9999 11.9961C12.7512 11.9961 13.4718 12.2945 14.0032 12.8258L21.3097 20.1323Z" fill="url(#paint1_linear_1921_9368)"/>
<path d="M17.8329 7.83598C17.8329 8.27889 17.6569 8.70365 17.3437 9.01683C17.0306 9.33001 16.6058 9.50595 16.1629 9.50595C15.72 9.50595 15.2952 9.33001 14.982 9.01683C14.6689 8.70365 14.4929 8.27889 14.4929 7.83598C14.4929 7.39308 14.6689 6.96832 14.982 6.65514C15.2952 6.34196 15.72 6.16602 16.1629 6.16602C16.6058 6.16602 17.0306 6.34196 17.3437 6.65514C17.6569 6.96832 17.8329 7.39308 17.8329 7.83598Z" fill="url(#paint2_linear_1921_9368)"/>
<defs>
<radialGradient id="paint0_radial_1921_9368" cx="0" cy="0" r="1" gradientUnits="userSpaceOnUse" gradientTransform="translate(-5.85722 -9.24945) rotate(51.687) scale(55.3023 50.301)">
<stop offset="0.338" stop-color="#0FAFFF"/>
<stop offset="0.529" stop-color="#367AF2"/>
</radialGradient>
<linearGradient id="paint1_linear_1921_9368" x1="9.14327" y1="11.9958" x2="11.2866" y2="22.5789" gradientUnits="userSpaceOnUse">
<stop stop-color="#B3E0FF"/>
<stop offset="1" stop-color="#8CD0FF"/>
</linearGradient>
<linearGradient id="paint2_linear_1921_9368" x1="15.4946" y1="5.79436" x2="16.7145" y2="10.1876" gradientUnits="userSpaceOnUse">
<stop stop-color="#FDFDFD"/>
<stop offset="1" stop-color="#B3E0FF"/>
</linearGradient>
</defs>
</svg>
