<svg width="24" height="24" viewBox="0 0 24 24" fill="none" xmlns="http://www.w3.org/2000/svg">
<rect width="24" height="24" rx="4" fill="white"/>
<g clip-path="url(#clip0_1921_9360)">
<path d="M11.9592 2.5C11.6526 2.50013 11.3518 2.58208 11.089 2.73707C10.8262 2.89206 10.6112 3.11428 10.4671 3.37994C10.323 3.6456 10.2552 3.94472 10.2709 4.24529C10.2866 4.54587 10.3853 4.8366 10.5563 5.08639L11.2786 4.37824C11.2548 4.30761 11.2428 4.23366 11.243 4.15926C11.243 3.77259 11.5623 3.45916 11.9561 3.45916C12.35 3.45916 12.6693 3.77259 12.6693 4.15921C12.6693 4.54584 12.35 4.85931 11.9561 4.85931C11.8807 4.8595 11.8057 4.84767 11.734 4.82435L11.0127 5.53241C11.2316 5.67816 11.4823 5.77143 11.7447 5.80472C12.007 5.83802 12.2736 5.81041 12.5231 5.72412C12.7726 5.63782 12.9979 5.49525 13.1811 5.30788C13.3642 5.1205 13.4999 4.89355 13.5774 4.64528C13.6549 4.39701 13.672 4.13435 13.6272 3.87843C13.5824 3.62251 13.4771 3.38048 13.3197 3.1718C13.1623 2.96313 12.9572 2.79363 12.7209 2.67695C12.4846 2.56027 12.2237 2.49966 11.9592 2.5Z" fill="#34A853"/>
<path d="M11.2867 7.33548C11.2878 6.77498 11.1029 6.22939 10.7599 5.78125L9.82264 6.70043C10.1158 7.22672 10.0103 7.88091 9.56592 8.29265L10.0753 9.51477C10.4468 9.27994 10.7523 8.9574 10.9639 8.57669C11.1755 8.19597 11.2865 7.76919 11.2867 7.33548Z" fill="#FBBC04"/>
<path d="M8.66734 8.65571H8.64287C8.4333 8.65572 8.22662 8.60765 8.03933 8.51533C7.85204 8.423 7.68932 8.28899 7.56415 8.12398C7.43899 7.95897 7.35484 7.76752 7.31842 7.56492C7.282 7.36231 7.29433 7.15416 7.3544 6.95706C7.41448 6.75996 7.52065 6.57937 7.66445 6.4297C7.80824 6.28003 7.98567 6.16542 8.1826 6.09502C8.37952 6.02461 8.59048 6.00036 8.79864 6.0242C9.00681 6.04804 9.20642 6.11931 9.38154 6.23231L10.3097 5.32119C9.40718 4.60301 8.13267 4.54762 7.169 5.18478C6.20534 5.82195 5.77859 7.00211 6.11737 8.09307C6.4562 9.18408 7.48107 9.92986 8.64287 9.93097C8.82215 9.93104 9.00099 9.91361 9.17675 9.87894L8.66734 8.65571Z" fill="#EA4335"/>
<path d="M11.9949 9.71195C11.4083 9.71137 10.8247 9.79527 10.2629 9.96097L11.0056 11.7422C11.3289 11.6636 11.6608 11.624 11.9939 11.6242C13.9239 11.6248 15.5847 12.9635 15.9608 14.8218C16.3369 16.6801 15.3235 18.5405 13.5403 19.2652C11.7571 19.99 9.70067 19.3773 8.62856 17.8019C7.55645 16.2265 7.7672 14.127 9.13197 12.7874C9.41675 12.5087 9.74186 12.2728 10.0968 12.0873L9.36226 10.311C6.62414 11.6275 5.32774 14.751 6.34895 17.571C7.37026 20.3911 10.3842 22.0103 13.3543 21.3346C16.3245 20.6588 18.3057 17.9033 17.9592 14.9296C17.6127 11.9561 15.0488 9.71085 12 9.71094L11.9949 9.71195Z" fill="#4285F4"/>
</g>
<defs>
<clipPath id="clip0_1921_9360">
<rect width="12" height="19" fill="white" transform="translate(6 2.5)"/>
</clipPath>
</defs>
</svg>
