<svg width="24" height="24" viewBox="0 0 24 24" fill="none" xmlns="http://www.w3.org/2000/svg">
<rect width="24" height="24" rx="4" fill="url(#paint0_linear_1921_9353)"/>
<path d="M12 9.33268H6.66671C6.31309 9.33268 5.97395 9.47316 5.7239 9.72321C5.47385 9.97326 5.33337 10.3124 5.33337 10.666V13.3327C5.33337 13.6863 5.47385 14.0254 5.7239 14.2755C5.97395 14.5255 6.31309 14.666 6.66671 14.666H7.33337V17.3327C7.33337 17.5095 7.40361 17.6791 7.52864 17.8041C7.65366 17.9291 7.82323 17.9993 8.00004 17.9993H9.33337C9.51019 17.9993 9.67975 17.9291 9.80478 17.8041C9.9298 17.6791 10 17.5095 10 17.3327V14.666H12L15.3334 17.3327V6.66602L12 9.33268ZM18.3334 11.9993C18.3334 13.1393 17.6934 14.1727 16.6667 14.666V9.33268C17.6867 9.83268 18.3334 10.866 18.3334 11.9993Z" fill="white"/>
<defs>
<linearGradient id="paint0_linear_1921_9353" x1="12" y1="0" x2="12" y2="24" gradientUnits="userSpaceOnUse">
<stop stop-color="#46E2E2"/>
<stop offset="1" stop-color="#01D8FF"/>
</linearGradient>
</defs>
</svg>
