<svg width="23" height="16" viewBox="0 0 23 16" fill="none" xmlns="http://www.w3.org/2000/svg">
<g clip-path="url(#clip0_1921_9349)">
<path d="M22.2552 2.49556C22.1247 2.01321 21.8701 1.57346 21.5167 1.22011C21.1634 0.866766 20.7237 0.612143 20.2413 0.4816C18.4755 0 11.3684 0 11.3684 0C11.3684 0 4.26106 0.0145777 2.49519 0.496178C2.01284 0.626729 1.5731 0.881365 1.21976 1.23473C0.866431 1.58809 0.611834 2.02786 0.481325 2.51022C-0.0528079 5.64782 -0.260008 10.4288 0.495992 13.4409C0.626514 13.9232 0.881118 14.363 1.23445 14.7163C1.58778 15.0697 2.02751 15.3243 2.50986 15.4548C4.27573 15.9364 11.3829 15.9364 11.3829 15.9364C11.3829 15.9364 18.49 15.9364 20.2558 15.4548C20.7382 15.3243 21.1779 15.0697 21.5313 14.7163C21.8846 14.363 22.1392 13.9233 22.2698 13.4409C22.8331 10.2988 23.0067 5.5208 22.2552 2.49556Z" fill="#FF0000"/>
<path d="M9.10632 11.3826L15.0021 7.96767L9.10632 4.55273V11.3826Z" fill="white"/>
</g>
<defs>
<clipPath id="clip0_1921_9349">
<rect width="22.76" height="16" fill="white"/>
</clipPath>
</defs>
</svg>
