<svg width="24" height="24" viewBox="0 0 24 24" fill="none" xmlns="http://www.w3.org/2000/svg">
<path d="M13.5 1.58789C15.0675 1.58966 16.5703 2.21288 17.6787 3.32129C18.7871 4.42969 19.4103 5.93248 19.4121 7.5V16.5C19.4103 18.0675 18.7871 19.5703 17.6787 20.6787C16.5703 21.7871 15.0675 22.4103 13.5 22.4121H10.5C8.93248 22.4103 7.42969 21.7871 6.32129 20.6787C5.21288 19.5703 4.58966 18.0675 4.58789 16.5V7.5L4.59473 7.20703C4.66869 5.74619 5.2821 4.36047 6.32129 3.32129C7.42969 2.21288 8.93248 1.58966 10.5 1.58789H13.5ZM10.5 2.91211C9.28378 2.9136 8.11781 3.39781 7.25781 4.25781C6.39781 5.11781 5.9136 6.28378 5.91211 7.5V16.5L5.91797 16.7275C5.97553 17.8609 6.45159 18.936 7.25781 19.7422C8.11781 20.6022 9.28378 21.0864 10.5 21.0879H13.5L13.7275 21.082C14.8609 21.0245 15.936 20.5484 16.7422 19.7422C17.6022 18.8822 18.0864 17.7162 18.0879 16.5V7.5C18.0864 6.28378 17.6022 5.11781 16.7422 4.25781C15.936 3.45159 14.8609 2.97553 13.7275 2.91797L13.5 2.91211H10.5ZM12 5.33789C12.1756 5.33789 12.3436 5.40816 12.4678 5.53223L14.7148 7.7793C14.7799 7.83989 14.8329 7.91297 14.8691 7.99414C14.9053 8.07529 14.9251 8.16313 14.9268 8.25195C14.9283 8.34082 14.9112 8.42929 14.8779 8.51172C14.8446 8.59421 14.7953 8.66951 14.7324 8.73242C14.6695 8.79533 14.5942 8.84461 14.5117 8.87793C14.4293 8.91119 14.3408 8.92833 14.252 8.92676C14.1631 8.92514 14.0753 8.9053 13.9941 8.86914C13.913 8.83295 13.8399 8.78082 13.7793 8.71582V8.71484L12.6621 7.59766V16.3994L13.7822 15.2803L13.7842 15.2773C13.9098 15.1603 14.0764 15.0966 14.248 15.0996C14.4195 15.1027 14.5828 15.1727 14.7041 15.2939C14.8254 15.4152 14.8953 15.5785 14.8984 15.75C14.9015 15.9216 14.8377 16.0883 14.7207 16.2139L12.4678 18.4668C12.3436 18.5906 12.1754 18.6602 12 18.6602C11.8246 18.6602 11.6564 18.5906 11.5322 18.4668L9.2793 16.2139C9.16227 16.0883 9.09853 15.9216 9.10156 15.75C9.10471 15.5785 9.17463 15.4152 9.2959 15.2939C9.41718 15.1727 9.58048 15.1027 9.75195 15.0996C9.88068 15.0973 10.0065 15.133 10.1143 15.2002L10.2158 15.2773L10.2188 15.2803H10.2178L11.3379 16.4004V7.59961L10.2178 8.71875L10.2158 8.7207C10.0902 8.83773 9.92359 8.90147 9.75195 8.89844C9.58046 8.89531 9.41719 8.82539 9.2959 8.7041C9.17461 8.58281 9.10469 8.41954 9.10156 8.24805C9.09853 8.07641 9.16227 7.90977 9.2793 7.78418L9.28223 7.78223L11.5322 5.53223C11.6564 5.40816 11.8244 5.33789 12 5.33789Z" fill="black" stroke="black" stroke-width="0.2"/>
</svg>
