<svg width="102" height="20" viewBox="0 0 102 20" fill="none" xmlns="http://www.w3.org/2000/svg">
<g clip-path="url(#clip0_2007_7699)">
<path d="M16.2963 1.11133H2.2222C1.60855 1.11133 1.11108 1.60879 1.11108 2.22244V16.2965C1.11108 16.9102 1.60855 17.4076 2.2222 17.4076H16.2963C16.9099 17.4076 17.4074 16.9102 17.4074 16.2965V2.22244C17.4074 1.60879 16.9099 1.11133 16.2963 1.11133Z" stroke="#699300"/>
<path d="M17.7777 2.22217H3.70365C2.88545 2.22217 2.22217 2.88545 2.22217 3.70365V17.7777C2.22217 18.5959 2.88545 19.2592 3.70365 19.2592H17.7777C18.5959 19.2592 19.2592 18.5959 19.2592 17.7777V3.70365C19.2592 2.88545 18.5959 2.22217 17.7777 2.22217Z" fill="#66B10B"/>
<path d="M10.7406 17.0369C14.218 17.0369 17.0369 14.218 17.0369 10.7406C17.0369 7.26328 14.218 4.44434 10.7406 4.44434C7.26328 4.44434 4.44434 7.26328 4.44434 10.7406C4.44434 14.218 7.26328 17.0369 10.7406 17.0369Z" fill="white"/>
<path d="M8.89841 8.96634C8.59737 9.28878 8.38055 9.66656 8.24811 10.0683C8.14663 10.3761 7.83181 10.5364 7.54626 10.4277C7.26067 10.319 7.10928 9.98175 7.21078 9.67582C7.39658 9.11004 7.69937 8.58115 8.11907 8.13153C9.61922 6.52452 12.0466 6.51899 13.5518 8.11308L14.2674 7.34644C14.3862 7.21927 14.5634 7.18242 14.7182 7.25061C14.873 7.31879 14.9728 7.48093 14.9728 7.65975V10.0186C14.9728 10.2637 14.7887 10.4609 14.5599 10.4609H12.3579C12.1911 10.4609 12.0397 10.354 11.976 10.1881C11.9123 10.0223 11.9468 9.83249 12.0654 9.7053L12.7725 8.9479C11.6956 7.81449 9.9667 7.82004 8.8967 8.96634H8.89841ZM6.71533 12.0826C6.71533 11.8375 6.89941 11.6403 7.12821 11.6403H9.33018C9.49707 11.6403 9.64848 11.7472 9.71211 11.9131C9.77574 12.0789 9.74137 12.2687 9.62263 12.3959L8.91559 13.1533C9.99248 14.2866 11.7214 14.2812 12.7914 13.1349C13.0925 12.8123 13.3092 12.4346 13.4417 12.0329C13.5432 11.7251 13.858 11.5647 14.1436 11.6735C14.4291 11.7822 14.5806 12.1195 14.4791 12.4254C14.2932 12.9893 13.9905 13.5182 13.569 13.9697C12.0689 15.5766 9.64159 15.5822 8.13633 13.9881L7.42063 14.7547C7.30195 14.8819 7.12477 14.9188 6.96994 14.8506C6.81511 14.7824 6.71533 14.6202 6.71533 14.4415V12.0844V12.0826Z" fill="#1D6CFF"/>
</g>
<path d="M27.99 14.5V6.557H25.156V5.27H32.228V6.557H29.394V14.5H27.99ZM34.2566 14.656C33.5373 14.656 32.9609 14.4913 32.5276 14.162C32.1029 13.8327 31.8906 13.369 31.8906 12.771C31.8906 12.173 32.0683 11.7093 32.4236 11.38C32.7876 11.042 33.3466 10.7993 34.1006 10.652L36.4796 10.197C36.4796 9.65967 36.3539 9.261 36.1026 9.001C35.8513 8.73233 35.4786 8.598 34.9846 8.598C34.5426 8.598 34.1959 8.69767 33.9446 8.897C33.6933 9.08767 33.5199 9.37367 33.4246 9.755L32.0076 9.664C32.1376 8.97067 32.4583 8.42467 32.9696 8.026C33.4896 7.62733 34.1613 7.428 34.9846 7.428C35.9206 7.428 36.6313 7.67933 37.1166 8.182C37.6106 8.676 37.8576 9.37367 37.8576 10.275V12.966C37.8576 13.1307 37.8836 13.2477 37.9356 13.317C37.9963 13.3777 38.0916 13.408 38.2216 13.408H38.4686V14.5C38.4253 14.5087 38.3559 14.5173 38.2606 14.526C38.1653 14.5347 38.0656 14.539 37.9616 14.539C37.6669 14.539 37.4113 14.4913 37.1946 14.396C36.9866 14.3007 36.8306 14.1447 36.7266 13.928C36.6226 13.7027 36.5706 13.4037 36.5706 13.031L36.7136 13.096C36.6443 13.3993 36.4926 13.668 36.2586 13.902C36.0333 14.136 35.7429 14.3223 35.3876 14.461C35.0409 14.591 34.6639 14.656 34.2566 14.656ZM34.4776 13.564C34.8936 13.564 35.2489 13.486 35.5436 13.33C35.8383 13.1653 36.0679 12.94 36.2326 12.654C36.3973 12.368 36.4796 12.043 36.4796 11.679V11.237L34.4516 11.627C34.0356 11.705 33.7409 11.8307 33.5676 12.004C33.4029 12.1687 33.3206 12.381 33.3206 12.641C33.3206 12.9357 33.4203 13.1653 33.6196 13.33C33.8276 13.486 34.1136 13.564 34.4776 13.564ZM42.8836 14.656C42.407 14.656 41.9823 14.552 41.6096 14.344C41.2456 14.1273 40.964 13.8327 40.7646 13.46L40.7256 14.5H39.4386V5.27H40.8166V8.559C40.9986 8.25567 41.2673 7.99133 41.6226 7.766C41.9866 7.54067 42.407 7.428 42.8836 7.428C43.4816 7.428 44.0016 7.57533 44.4436 7.87C44.8856 8.16467 45.2236 8.585 45.4576 9.131C45.7003 9.66833 45.8216 10.3053 45.8216 11.042C45.8216 11.7787 45.7003 12.42 45.4576 12.966C45.2236 13.5033 44.8856 13.9193 44.4436 14.214C44.0016 14.5087 43.4816 14.656 42.8836 14.656ZM42.6626 13.46C43.1913 13.46 43.6116 13.2477 43.9236 12.823C44.2356 12.3897 44.3916 11.796 44.3916 11.042C44.3916 10.288 44.2356 9.69867 43.9236 9.274C43.6116 8.84067 43.1956 8.624 42.6756 8.624C42.2856 8.624 41.952 8.71933 41.6746 8.91C41.3973 9.10067 41.185 9.378 41.0376 9.742C40.8903 10.0973 40.8166 10.5307 40.8166 11.042C40.8166 11.536 40.8903 11.965 41.0376 12.329C41.185 12.693 41.3973 12.9747 41.6746 13.174C41.952 13.3647 42.2813 13.46 42.6626 13.46ZM50.3919 14.5V5.27H54.0709C54.7296 5.27 55.2973 5.38267 55.7739 5.608C56.2506 5.83333 56.6189 6.154 56.8789 6.57C57.1389 6.986 57.2689 7.48 57.2689 8.052C57.2689 8.468 57.1736 8.84067 56.9829 9.17C56.8009 9.49933 56.5539 9.76367 56.2419 9.963C55.9386 10.1537 55.6136 10.262 55.2669 10.288L55.2019 10.171C55.7826 10.171 56.2333 10.3053 56.5539 10.574C56.8746 10.834 57.0609 11.2457 57.1129 11.809L57.3599 14.5H55.9429L55.7219 11.991C55.6959 11.6183 55.5703 11.3453 55.3449 11.172C55.1196 10.99 54.7513 10.899 54.2399 10.899H51.7959V14.5H50.3919ZM51.7959 9.612H54.0969C54.6256 9.612 55.0416 9.482 55.3449 9.222C55.6569 8.95333 55.8129 8.57633 55.8129 8.091C55.8129 7.597 55.6569 7.22 55.3449 6.96C55.0329 6.69133 54.5779 6.557 53.9799 6.557H51.7959V9.612ZM61.6241 14.656C60.9481 14.656 60.3631 14.5087 59.8691 14.214C59.3838 13.9193 59.0068 13.499 58.7381 12.953C58.4781 12.407 58.3481 11.77 58.3481 11.042C58.3481 10.314 58.4781 9.68133 58.7381 9.144C59.0068 8.598 59.3838 8.17767 59.8691 7.883C60.3545 7.57967 60.9265 7.428 61.5851 7.428C62.2091 7.428 62.7595 7.57533 63.2361 7.87C63.7128 8.156 64.0811 8.572 64.3411 9.118C64.6098 9.664 64.7441 10.3227 64.7441 11.094V11.445H59.7781C59.8128 12.121 59.9905 12.628 60.3111 12.966C60.6405 13.304 61.0825 13.473 61.6371 13.473C62.0445 13.473 62.3825 13.3777 62.6511 13.187C62.9198 12.9963 63.1061 12.7407 63.2101 12.42L64.6401 12.511C64.4581 13.1523 64.0985 13.6723 63.5611 14.071C63.0325 14.461 62.3868 14.656 61.6241 14.656ZM59.7781 10.405H63.2881C63.2448 9.78967 63.0671 9.33467 62.7551 9.04C62.4518 8.74533 62.0618 8.598 61.5851 8.598C61.0911 8.598 60.6838 8.754 60.3631 9.066C60.0511 9.36933 59.8561 9.81567 59.7781 10.405ZM67.6276 14.5L65.1056 7.584H66.5746L68.4596 13.096L70.3446 7.584H71.8266L69.2916 14.5H67.6276ZM75.4306 14.656C74.7719 14.656 74.1956 14.5087 73.7016 14.214C73.2076 13.9193 72.8262 13.499 72.5576 12.953C72.2889 12.407 72.1546 11.77 72.1546 11.042C72.1546 10.3053 72.2889 9.66833 72.5576 9.131C72.8262 8.59367 73.2076 8.17767 73.7016 7.883C74.1956 7.57967 74.7719 7.428 75.4306 7.428C76.0892 7.428 76.6656 7.57967 77.1596 7.883C77.6536 8.17767 78.0349 8.59367 78.3036 9.131C78.5722 9.66833 78.7066 10.3053 78.7066 11.042C78.7066 11.77 78.5722 12.407 78.3036 12.953C78.0349 13.499 77.6536 13.9193 77.1596 14.214C76.6656 14.5087 76.0892 14.656 75.4306 14.656ZM75.4306 13.46C76.0199 13.46 76.4749 13.2477 76.7956 12.823C77.1162 12.3897 77.2766 11.796 77.2766 11.042C77.2766 10.288 77.1162 9.69867 76.7956 9.274C76.4749 8.84067 76.0199 8.624 75.4306 8.624C74.8499 8.624 74.3949 8.84067 74.0656 9.274C73.7449 9.69867 73.5846 10.288 73.5846 11.042C73.5846 11.796 73.7449 12.3897 74.0656 12.823C74.3949 13.2477 74.8499 13.46 75.4306 13.46ZM81.5407 14.5C81.09 14.5 80.726 14.383 80.4487 14.149C80.1713 13.915 80.0327 13.5423 80.0327 13.031V5.27H81.4107V12.901C81.4107 13.057 81.4497 13.174 81.5277 13.252C81.6143 13.33 81.7357 13.369 81.8917 13.369H82.4377V14.5H81.5407ZM85.0491 14.5L82.5271 7.584H83.9961L85.8811 13.096L87.7661 7.584H89.2481L86.7131 14.5H85.0491ZM92.8521 14.656C92.1761 14.656 91.5911 14.5087 91.0971 14.214C90.6117 13.9193 90.2347 13.499 89.9661 12.953C89.7061 12.407 89.5761 11.77 89.5761 11.042C89.5761 10.314 89.7061 9.68133 89.9661 9.144C90.2347 8.598 90.6117 8.17767 91.0971 7.883C91.5824 7.57967 92.1544 7.428 92.8131 7.428C93.4371 7.428 93.9874 7.57533 94.4641 7.87C94.9407 8.156 95.3091 8.572 95.5691 9.118C95.8377 9.664 95.9721 10.3227 95.9721 11.094V11.445H91.0061C91.0407 12.121 91.2184 12.628 91.5391 12.966C91.8684 13.304 92.3104 13.473 92.8651 13.473C93.2724 13.473 93.6104 13.3777 93.8791 13.187C94.1477 12.9963 94.3341 12.7407 94.4381 12.42L95.8681 12.511C95.6861 13.1523 95.3264 13.6723 94.7891 14.071C94.2604 14.461 93.6147 14.656 92.8521 14.656ZM91.0061 10.405H94.5161C94.4727 9.78967 94.2951 9.33467 93.9831 9.04C93.6797 8.74533 93.2897 8.598 92.8131 8.598C92.3191 8.598 91.9117 8.754 91.5911 9.066C91.2791 9.36933 91.0841 9.81567 91.0061 10.405ZM97.2384 14.5V7.584H98.4994L98.5514 9.417L98.4344 9.378C98.5297 8.754 98.7204 8.299 99.0064 8.013C99.301 7.727 99.6954 7.584 100.189 7.584H100.852V8.819H100.189C99.8427 8.819 99.5524 8.87533 99.3184 8.988C99.0844 9.10067 98.9067 9.274 98.7854 9.508C98.6727 9.742 98.6164 10.0453 98.6164 10.418V14.5H97.2384Z" fill="#5F5F5F"/>
<defs>
<clipPath id="clip0_2007_7699">
<rect width="20" height="20" fill="white"/>
</clipPath>
</defs>
</svg>
