<svg width="89" height="20" viewBox="0 0 89 20" fill="none" xmlns="http://www.w3.org/2000/svg">
<path d="M15.4715 14.1061C15.4715 15.0071 14.7411 15.7374 13.8402 15.7374C12.9392 15.7374 12.2089 15.0071 12.2089 14.1061C12.2089 13.2052 12.9392 12.4748 13.8402 12.4748C14.7411 12.4748 15.4715 13.2052 15.4715 14.1061Z" fill="#89C408"/>
<path d="M15.4715 17.3687C15.4715 18.2697 14.7411 19 13.8402 19C12.9392 19 12.2089 18.2697 12.2089 17.3687C12.2089 16.4678 12.9392 15.7374 13.8402 15.7374C14.7411 15.7374 15.4715 16.4678 15.4715 17.3687Z" fill="#89C408"/>
<path d="M9.10628 17.0948C8.32603 17.5452 7.32835 17.2779 6.87787 16.4977C6.4274 15.7174 6.69473 14.7197 7.47497 14.2693C8.25521 13.8188 9.2529 14.0861 9.70337 14.8664C10.1538 15.6466 9.88652 16.6443 9.10628 17.0948Z" fill="#89C408"/>
<path d="M6.28078 18.7261C5.50053 19.1765 4.50285 18.9092 4.05237 18.129C3.6019 17.3487 3.86923 16.351 4.64947 15.9006C5.42971 15.4501 6.4274 15.7174 6.87787 16.4977C7.32835 17.2779 7.06102 18.2756 6.28078 18.7261Z" fill="#89C408"/>
<path d="M15.8239 7.41775C16.6041 7.86822 16.8715 8.86591 16.421 9.64615C15.9705 10.4264 14.9728 10.6937 14.1926 10.2432C13.4123 9.79277 13.145 8.79508 13.5955 8.01484C14.046 7.2346 15.0436 6.96727 15.8239 7.41775Z" fill="#89C408"/>
<path d="M18.6494 9.04905C19.4296 9.49952 19.697 10.4972 19.2465 11.2775C18.796 12.0577 17.7983 12.325 17.0181 11.8745C16.2378 11.4241 15.9705 10.4264 16.421 9.64615C16.8715 8.86591 17.8691 8.59858 18.6494 9.04905Z" fill="#89C408"/>
<path d="M14.4896 4.04433C13.7093 4.4948 12.7116 4.22747 12.2612 3.44723C11.8107 2.66699 12.078 1.6693 12.8583 1.21883C13.6385 0.768354 14.6362 1.03568 15.0867 1.81592C15.5371 2.59616 15.2698 3.59385 14.4896 4.04433Z" fill="#89C408"/>
<path d="M11.6641 5.67563C10.8838 6.1261 9.88615 5.85877 9.43567 5.07853C8.9852 4.29829 9.25253 3.3006 10.0328 2.85013C10.813 2.39966 11.8107 2.66699 12.2612 3.44723C12.7116 4.22747 12.4443 5.22516 11.6641 5.67563Z" fill="#89C408"/>
<path d="M2.44723 8.31491C3.22747 8.76538 3.4948 9.76307 3.04433 10.5433C2.59385 11.3236 1.59616 11.5909 0.815924 11.1404C0.0356837 10.6899 -0.231646 9.69225 0.218826 8.91201C0.669298 8.13177 1.66699 7.86444 2.44723 8.31491Z" fill="#89C408"/>
<path d="M5.27273 9.94621C6.05297 10.3967 6.3203 11.3944 5.86983 12.1746C5.41935 12.9549 4.42166 13.2222 3.64142 12.7717C2.86118 12.3212 2.59385 11.3236 3.04433 10.5433C3.4948 9.76307 4.49249 9.49574 5.27273 9.94621Z" fill="#89C408"/>
<path d="M7.2334 2.76856C7.2334 3.66951 6.50304 4.39987 5.6021 4.39987C4.70115 4.39987 3.97079 3.66951 3.97079 2.76856C3.97079 1.86762 4.70115 1.13726 5.6021 1.13726C6.50304 1.13726 7.2334 1.86762 7.2334 2.76856Z" fill="#89C408"/>
<path d="M7.2334 6.03117C7.2334 6.93211 6.50304 7.66247 5.6021 7.66247C4.70115 7.66247 3.97079 6.93211 3.97079 6.03117C3.97079 5.13023 4.70115 4.39987 5.6021 4.39987C6.50304 4.39987 7.2334 5.13023 7.2334 6.03117Z" fill="#89C408"/>
<path d="M28.5509 15L25.1069 5.984H26.6889L29.3909 13.362L32.0929 5.984H33.6749L30.2589 15H28.5509ZM34.4229 15L37.8669 5.984H39.5749L42.9909 15H41.4229L40.5269 12.676H36.9009L36.0049 15H34.4229ZM37.1389 11.5H40.2749L38.7069 7.37L37.1389 11.5ZM45.8917 15V5.984H50.0357C51.0437 5.984 51.7763 6.24533 52.2337 6.768C52.7003 7.28133 52.9337 7.98133 52.9337 8.868C52.9337 9.50267 52.775 10.044 52.4577 10.492C52.1403 10.94 51.683 11.2527 51.0857 11.43C51.2537 11.5513 51.3843 11.682 51.4777 11.822C51.571 11.962 51.6643 12.1487 51.7577 12.382L52.8917 15H51.3237L50.2177 12.48C50.115 12.2373 49.989 12.0647 49.8397 11.962C49.6997 11.8593 49.457 11.808 49.1117 11.808H47.4177V15H45.8917ZM47.4177 10.576H49.6297C50.1803 10.576 50.6143 10.4407 50.9317 10.17C51.249 9.89933 51.4077 9.46533 51.4077 8.868C51.4077 7.73867 50.8617 7.174 49.7697 7.174H47.4177V10.576ZM55.8366 15V5.984H57.3626V15H55.8366ZM60.2655 15L63.7095 5.984H65.4175L68.8335 15H67.2655L66.3695 12.676H62.7435L61.8475 15H60.2655ZM62.9815 11.5H66.1175L64.5495 7.37L62.9815 11.5ZM71.7342 15V5.984H76.1022C76.9982 5.984 77.6609 6.194 78.0902 6.614C78.5196 7.034 78.7342 7.62667 78.7342 8.392C78.7342 8.87733 78.6362 9.288 78.4402 9.624C78.2442 9.95067 77.9829 10.198 77.6562 10.366C78.0949 10.4873 78.4402 10.7067 78.6922 11.024C78.9536 11.332 79.0842 11.7893 79.0842 12.396C79.0842 13.2733 78.8462 13.9267 78.3702 14.356C77.9036 14.7853 77.2129 15 76.2982 15H71.7342ZM73.2602 9.834H75.8922C76.4056 9.834 76.7696 9.71733 76.9842 9.484C77.2082 9.24133 77.3202 8.91933 77.3202 8.518C77.3202 8.05133 77.2082 7.706 76.9842 7.482C76.7602 7.24867 76.3402 7.132 75.7242 7.132H73.2602V9.834ZM73.2602 13.88H75.9762C76.5176 13.88 76.9142 13.768 77.1662 13.544C77.4182 13.3107 77.5442 12.9093 77.5442 12.34C77.5442 11.8733 77.4182 11.528 77.1662 11.304C76.9236 11.0707 76.4756 10.954 75.8222 10.954H73.2602V13.88ZM81.9663 15V5.984H83.4923V13.824H88.1123V15H81.9663Z" fill="#5F5F5F"/>
</svg>
