<svg width="16" height="16" viewBox="0 0 16 16" fill="none" xmlns="http://www.w3.org/2000/svg">
<path d="M14 14L11.3333 11.3333M5.33333 7.33333H9.33333M7.33333 9.33333V5.33333M12.6667 7.33333C12.6667 8.74782 12.1048 10.1044 11.1046 11.1046C10.1044 12.1048 8.74782 12.6667 7.33333 12.6667C5.91885 12.6667 4.56229 12.1048 3.5621 11.1046C2.5619 10.1044 2 8.74782 2 7.33333C2 5.91885 2.5619 4.56229 3.5621 3.5621C4.56229 2.5619 5.91885 2 7.33333 2C8.74782 2 10.1044 2.5619 11.1046 3.5621C12.1048 4.56229 12.6667 5.91885 12.6667 7.33333Z" stroke="black" stroke-miterlimit="10" stroke-linecap="round" stroke-linejoin="round"/>
</svg>
